<svg xmlns="http://www.w3.org/2000/svg" viewBox="0 0 720 220" role="img" aria-labelledby="title desc">
  <title id="title">ARK Client Center</title>
  <desc id="desc">ARK Client Center wordmark with a phone and circuit logo.</desc>
  <defs>
    <linearGradient id="circuit" x1="0" y1="0" x2="1" y2="1">
      <stop offset="0" stop-color="#155EEF"/>
      <stop offset="1" stop-color="#22B8F0"/>
    </linearGradient>
  </defs>
  <g transform="translate(10 10) scale(.78)">
    <path fill="#08245B" d="M50 37c-8 1-14 7-16 15-7 31 6 70 38 102 31 31 70 45 101 38 8-2 14-8 15-16 1-5-1-10-6-13l-31-20c-7-4-16-3-21 4l-12 15c-16-7-31-18-44-31-13-13-24-28-31-44l15-12c7-5 8-14 4-21L42 23c-3-5-8-7-13-6l21 20Z"/>
    <g fill="none" stroke="url(#circuit)" stroke-width="10" stroke-linecap="round" stroke-linejoin="round">
      <path d="M132 72h31l15-16h30"/>
      <path d="M143 111h38l13-13h28"/>
      <path d="M132 150h31l15 16h30"/>
    </g>
    <g fill="#fff" stroke="url(#circuit)" stroke-width="8">
      <circle cx="216" cy="56" r="12"/>
      <circle cx="230" cy="98" r="12"/>
      <circle cx="216" cy="166" r="12"/>
    </g>
  </g>
  <text x="235" y="108" fill="#08245B" font-family="Inter, Arial, sans-serif" font-size="88" font-weight="800" letter-spacing="5">ARK</text>
  <text x="240" y="164" fill="#5F6B85" font-family="Inter, Arial, sans-serif" font-size="42" font-weight="500">Client Center</text>
</svg>
